<svg xmlns="http://www.w3.org/2000/svg" version="1.1" xmlns:xlink="http://www.w3.org/1999/xlink" xmlns:svgjs="http://svgjs.com/svgjs" width="1440" height="560" preserveAspectRatio="none" viewBox="0 0 1440 560"><g mask="url(&quot;#SvgjsMask1002&quot;)" fill="none"><rect width="1440" height="560" x="0" y="0" fill="url(#SvgjsLinearGradient1003)"></rect><path d="M1440 0L1171.51 0L1440 44.99z" fill="rgba(255, 255, 255, .1)"></path><path d="M1171.51 0L1440 44.99L1440 262.67L641.02 0z" fill="rgba(255, 255, 255, .075)"></path><path d="M641.02 0L1440 262.67L1440 311.83000000000004L557.7 0z" fill="rgba(255, 255, 255, .05)"></path><path d="M557.7 0L1440 311.83000000000004L1440 324.64000000000004L441.48 0z" fill="rgba(255, 255, 255, .025)"></path><path d="M0 560L490.27 560L0 436.52z" fill="rgba(0, 0, 0, .1)"></path><path d="M0 436.52L490.27 560L962.55 560L0 321.15z" fill="rgba(0, 0, 0, .075)"></path><path d="M0 321.15L962.55 560L1260.78 560L0 307.96999999999997z" fill="rgba(0, 0, 0, .05)"></path><path d="M0 307.96999999999997L1260.78 560L1339.8799999999999 560L0 293.40999999999997z" fill="rgba(0, 0, 0, .025)"></path></g><defs><mask id="SvgjsMask1002"><rect width="1440" height="560" fill="#ffffff"></rect></mask><linearGradient x1="15.28%" y1="-39.29%" x2="84.72%" y2="139.29%" gradientUnits="userSpaceOnUse" id="SvgjsLinearGradient1003"><stop stop-color="#0e2a47" offset="0"></stop><stop stop-color="rgba(0, 95, 218, 1)" offset="1"></stop></linearGradient></defs></svg>